HIERARCHY
ROOT hip
{
  OFFSET -4.0799 82.636 -36.5788
  CHANNELS 6 Xposition Yposition Zposition Zrotation Xrotation Yrotation
  JOINT abdomen
  {
    OFFSET 0 20.6881 -0.73152
    CHANNELS 3 Zrotation Xrotation Yrotation
    JOINT chest
    {
      OFFSET 0 11.7043 -0.48768
      CHANNELS 3 Zrotation Xrotation Yrotation
      JOINT neck
      {
        OFFSET 0 22.1894 -2.19456
        CHANNELS 3 Zrotation Xrotation Yrotation
        JOINT head
        {
          OFFSET -0.24384 7.07133 1.2192
          CHANNELS 3 Zrotation Xrotation Yrotation
          JOINT leftEye
          {
            OFFSET 4.14528 8.04674 8.04672
            CHANNELS 3 Zrotation Xrotation Yrotation
            End Site
            {
              OFFSET 1 0 0
            }
          }
          JOINT rightEye
          {
            OFFSET -3.6576 8.04674 8.04672
            CHANNELS 3 Zrotation Xrotation Yrotation
            End Site
            {
              OFFSET 1 0 0
            }
          }
        }
      }
      JOINT rCollar
      {
        OFFSET -2.68224 19.2634 -4.8768
        CHANNELS 3 Zrotation Xrotation Yrotation
        JOINT rShldr
        {
          OFFSET -8.77824 -1.95073 1.46304
          CHANNELS 3 Zrotation Xrotation Yrotation
          JOINT rForeArm
          {
            OFFSET -28.1742 -1.7115 0.48768
            CHANNELS 3 Zrotation Xrotation Yrotation
            JOINT rHand
            {
              OFFSET -22.5879 0.773209 7.07136
              CHANNELS 3 Zrotation Xrotation Yrotation
              JOINT rThumb1
              {
                OFFSET -1.2192 -0.487915 3.41376
                CHANNELS 3 Zrotation Xrotation Yrotation
                JOINT rThumb2
                {
                  OFFSET -3.37035 -0.52449 3.41376
                  CHANNELS 3 Zrotation Xrotation Yrotation
                  End Site
                  {
                    OFFSET -1.78271 -1.18214 1.43049
                  }
                }
              }
              JOINT rIndex1
              {
                OFFSET -7.75947 0.938293 5.60832
                CHANNELS 3 Zrotation Xrotation Yrotation
                JOINT rIndex2
                {
                  OFFSET -2.54057 -0.884171 1.56538
                  CHANNELS 3 Zrotation Xrotation Yrotation
                  End Site
                  {
                    OFFSET -1.62519 -0.234802 1.16502
                  }
                }
              }
              JOINT rMid1
              {
                OFFSET -8.24714 1.18213 3.41376
                CHANNELS 3 Zrotation Xrotation Yrotation
                JOINT rMid2
                {
                  OFFSET -3.10165 -0.590103 1.0647
                  CHANNELS 3 Zrotation Xrotation Yrotation
                  End Site
                  {
                    OFFSET -2.48547 -0.328903 0.83742
                  }
                }
              }
              JOINT rRing1
              {
                OFFSET -8.82822 0.546677 1.51678
                CHANNELS 3 Zrotation Xrotation Yrotation
                JOINT rRing2
                {
                  OFFSET -2.60934 -0.819778 -0.0198488
                  CHANNELS 3 Zrotation Xrotation Yrotation
                  End Site
                  {
                    OFFSET -2.33842 -0.294052 0.168128
                  }
                }
              }
              JOINT rPinky1
              {
                OFFSET -8.27202 -0.0477905 -0.4584
                CHANNELS 3 Zrotation Xrotation Yrotation
                JOINT rPinky2
                {
                  OFFSET -1.82734 -0.647385 -0.700984
                  CHANNELS 3 Zrotation Xrotation Yrotation
                  End Site
                  {
                    OFFSET -1.69225 -0.51767 -0.607171
                  }
                }
              }
            }
          }
        }
      }
      JOINT lCollar
      {
        OFFSET 2.68224 19.2634 -4.8768
        CHANNELS 3 Zrotation Xrotation Yrotation
        JOINT lShldr
        {
          OFFSET 8.77824 -1.95073 1.46304
          CHANNELS 3 Zrotation Xrotation Yrotation
          JOINT lForeArm
          {
            OFFSET 28.1742 -1.7115 0.48768
            CHANNELS 3 Zrotation Xrotation Yrotation
            JOINT lHand
            {
              OFFSET 22.5879 0.773209 7.07136
              CHANNELS 3 Zrotation Xrotation Yrotation
              JOINT lThumb1
              {
                OFFSET 1.2192 -0.487915 3.41376
                CHANNELS 3 Zrotation Xrotation Yrotation
                JOINT lThumb2
                {
                  OFFSET 3.37035 -0.52449 3.41376
                  CHANNELS 3 Zrotation Xrotation Yrotation
                  End Site
                  {
                    OFFSET 1.78271 -1.18214 1.43049
                  }
                }
              }
              JOINT lIndex1
              {
                OFFSET 7.75947 0.938293 5.60832
                CHANNELS 3 Zrotation Xrotation Yrotation
                JOINT lIndex2
                {
                  OFFSET 2.54057 -0.884171 1.56538
                  CHANNELS 3 Zrotation Xrotation Yrotation
                  End Site
                  {
                    OFFSET 1.62519 -0.234802 1.16502
                  }
                }
              }
              JOINT lMid1
              {
                OFFSET 8.24714 1.18213 3.41376
                CHANNELS 3 Zrotation Xrotation Yrotation
                JOINT lMid2
                {
                  OFFSET 3.10165 -0.590103 1.0647
                  CHANNELS 3 Zrotation Xrotation Yrotation
                  End Site
                  {
                    OFFSET 2.48547 -0.328903 0.83742
                  }
                }
              }
              JOINT lRing1
              {
                OFFSET 8.82822 0.546677 1.51678
                CHANNELS 3 Zrotation Xrotation Yrotation
                JOINT lRing2
                {
                  OFFSET 2.60934 -0.819778 -0.0198488
                  CHANNELS 3 Zrotation Xrotation Yrotation
                  End Site
                  {
                    OFFSET 2.33842 -0.294052 0.168128
                  }
                }
              }
              JOINT lPinky1
              {
                OFFSET 8.27202 -0.0477905 -0.4584
                CHANNELS 3 Zrotation Xrotation Yrotation
                JOINT lPinky2
                {
                  OFFSET 1.82734 -0.647385 -0.700984
                  CHANNELS 3 Zrotation Xrotation Yrotation
                  End Site
                  {
                    OFFSET 1.69225 -0.51767 -0.607171
                  }
                }
              }
            }
          }
        }
      }
    }
  }
  JOINT rButtock
  {
    OFFSET -8.77824 4.35084 1.2192
    CHANNELS 3 Zrotation Xrotation Yrotation
    JOINT rThigh
    {
      OFFSET 0 -1.70687 -2.19456
      CHANNELS 3 Zrotation Xrotation Yrotation
      JOINT rShin
      {
        OFFSET 0 -36.8199 0.73152
        CHANNELS 3 Zrotation Xrotation Yrotation
        JOINT rFoot
        {
          OFFSET 0.73152 -45.1104 -5.12064
          CHANNELS 3 Zrotation Xrotation Yrotation
          End Site
          {
            OFFSET -1.1221 -3.69964 12.103
          }
        }
      }
    }
  }
  JOINT lButtock
  {
    OFFSET 8.77824 4.35084 1.2192
    CHANNELS 3 Zrotation Xrotation Yrotation
    JOINT lThigh
    {
      OFFSET 0 -1.70687 -2.19456
      CHANNELS 3 Zrotation Xrotation Yrotation
      JOINT lShin
      {
        OFFSET 0 -36.8199 0.73152
        CHANNELS 3 Zrotation Xrotation Yrotation
        JOINT lFoot
        {
          OFFSET -0.73152 -45.1104 -5.12064
          CHANNELS 3 Zrotation Xrotation Yrotation
          End Site
          {
            OFFSET 1.1221 -3.69964 12.103
          }
        }
      }
    }
  }
}
MOTION
Frames:	4
Frame Time:	0.00833333
2.10454 84.1002 -32.5132 1.15514 0.00311846 -0.0216558 -1.51925 -0.00282957 -0.0413933 -0.418697 0.00102582 -0.072511 -2.72538e-015 -1.59028e-015 -1.73937e-016 -8.28684e-015 3.18055e-015 -4.22417e-016 -0 0 0 -0 0 0 -1.44283e-015 -4.62019e-017 9.93923e-017 -2.62591e-014 -9.93923e-016 -7.95139e-016 -5.06802e-013 1.2106e-013 -3.81667e-014 -5.79727e-012 -3.17409e-013 -3.08514e-013 -1.36802e-011 -4.27057e-013 -7.34708e-013 -2.36275e-011 -7.37889e-013 -1.2754e-012 -1.36744e-011 -4.23809e-013 -7.50611e-013 7.73091 5.47488 0.417314 -1.36796e-011 -4.26493e-013 -7.37889e-013 2.90554 0.965183 0.102902 -1.36692e-011 -4.26393e-013 -7.37889e-013 10.2786 0.731801 0.0259123 -1.36806e-011 -4.26989e-013 -7.25166e-013 2.22167 -0.733487 -0.20892 -1.43965e-015 -4.52313e-017 -1.98785e-016 -3.14061e-014 -1.00635e-015 -2.78299e-015 -5.04217e-013 -1.86062e-013 -3.81667e-014 -5.81811e-012 -2.0773e-014 -3.02153e-013 -1.37143e-011 -4.47061e-013 -7.41069e-013 -2.36772e-011 -7.72875e-013 -1.28017e-012 -1.37213e-011 -4.44483e-013 -7.41069e-013 -7.73091 5.47488 -0.417314 -1.37153e-011 -4.46868e-013 -7.4743e-013 -2.90554 0.965183 -0.102902 -1.37216e-011 -4.4657e-013 -7.4266e-013 -10.2786 0.731801 -0.0259123 -1.37096e-011 -4.47663e-013 -7.53791e-013 -2.22167 -0.733487 0.20892 -2.03217e-016 0 -3.88251e-019 -0.640684 -1.92322 -0.00643388 -0.0092536 -2.07856 -0.0764186 -0.511998 3.99733 0.140289 2.03217e-016 0 3.88251e-019 -1.66988 -6.4978 0.154704 -0.00230958 6.20797 -0.0679739 0.534202 0.285504 -0.0665865 
-0.0110817 82.4859 -35.8253 -0.787664 3.08262 -1.6785 -0.762996 -2.928 -0.21824 0.912368 0.98152 -0.181987 -1.73756 -0.403958 -2.65634 0.130743 1.14835 -4.72254 -0 0 0 -0 0 0 8.10206e-015 2.72028e-014 2.99804e-014 21.4089 5.88036 0.515621 -4.12836 -1.85797 6.4673 0.0119618 -2.42643 -0.339908 -3.05181e-010 7.59062e-010 -2.4508e-010 -5.26897e-010 1.31318e-009 -4.25224e-010 -3.05177e-010 7.59064e-010 -2.45093e-010 7.73091 5.47488 0.417314 -3.05181e-010 7.59062e-010 -2.45082e-010 2.90554 0.965183 0.102902 -3.05171e-010 7.59062e-010 -2.45083e-010 10.2786 0.731801 0.0259123 -3.05182e-010 7.59062e-010 -2.45073e-010 2.22167 -0.733487 -0.20892 8.09242e-015 2.7204e-014 2.96663e-014 -22.2714 5.13935 -0.736309 3.62621 -1.545 -5.77036 -0.00143723 -0.850877 0.119538 -4.73642e-010 -1.17637e-010 3.62406e-010 -8.19314e-010 -2.03841e-010 6.26105e-010 -4.7365e-010 -1.17635e-010 3.62413e-010 -7.73091 5.47488 -0.417314 -4.73643e-010 -1.17638e-010 3.62405e-010 -2.90554 0.965183 -0.102902 -4.73649e-010 -1.17638e-010 3.62407e-010 -10.2786 0.731801 -0.0259123 -4.73638e-010 -1.17638e-010 3.62396e-010 -2.22167 -0.733487 0.20892 -2.03217e-016 0 -3.88251e-019 0.844446 -5.64623 0.798264 -0.00968923 3.70302 0.0356432 -0.636039 1.13607 -2.06299 2.03217e-016 0 3.88251e-019 0.607951 -9.27276 0.864284 -0.0235616 11.518 -0.163327 0.737972 -3.36418 2.24416 
0.0242127 82.4866 -35.8193 -2.64645 6.32961 -3.44521 0.0171836 -6.01267 -0.406162 2.32212 2.02718 -0.297953 -3.61858 -0.856798 -5.46678 0.476857 2.34765 -9.72074 -0 0 0 -0 0 0 1.88129e-014 5.75026e-014 6.4136e-014 43.9195 12.0886 1.09882 -8.03946 -3.74304 13.3255 -0.00680478 -4.99115 -0.701261 -6.32841e-010 1.60314e-009 -5.04542e-010 -1.09266e-009 2.77349e-009 -8.75466e-010 -6.32839e-010 1.60314e-009 -5.04552e-010 7.73091 5.47488 0.417314 -6.3284e-010 1.60314e-009 -5.04543e-010 2.90554 0.965183 0.102902 -6.32831e-010 1.60314e-009 -5.04546e-010 10.2786 0.731801 0.0259123 -6.32842e-010 1.60314e-009 -5.04538e-010 2.22167 -0.733487 -0.20892 1.87897e-014 5.7504e-014 6.38037e-014 -45.6664 10.556 -1.55309 7.11927 -3.12354 -11.8778 0.000914334 -1.73541 0.243894 -9.86495e-010 -2.54285e-010 7.50688e-010 -1.70646e-009 -4.40541e-010 1.29685e-009 -9.86502e-010 -2.54282e-010 7.50701e-010 -7.73091 5.47488 -0.417314 -9.86495e-010 -2.54286e-010 7.50691e-010 -2.90554 0.965183 -0.102902 -9.865e-010 -2.54286e-010 7.50691e-010 -10.2786 0.731801 -0.0259123 -9.8649e-010 -2.54286e-010 7.50681e-010 -2.22167 -0.733487 0.20892 -2.03217e-016 0 -3.88251e-019 2.5291 -9.58221 1.6692 -0.0349564 9.82061 0.156357 -1.00719 -1.89204 -4.39494 2.03217e-016 0 3.88251e-019 3.09227 -12.2021 1.62625 -0.0259621 17.1273 -0.269675 1.27487 -7.19978 4.71571 
0.0111347 82.4859 -35.8392 -4.13377 9.21031 -5.05019 0.694775 -8.77796 -0.577848 3.58575 2.94245 -0.401387 -5.32465 -1.20146 -7.97058 0.954527 3.35155 -14.1895 -0 0 0 -0 0 0 2.71918e-014 8.17009e-014 8.97423e-014 63.8958 17.6352 1.61462 -11.149 -5.29042 19.478 -0.0510758 -7.27825 -1.02709 -8.88184e-010 2.27804e-009 -7.33769e-010 -1.53344e-009 3.94102e-009 -1.27312e-009 -8.88184e-010 2.27804e-009 -7.33777e-010 7.73091 5.47488 0.417314 -8.88183e-010 2.27804e-009 -7.33769e-010 2.90554 0.965183 0.102902 -8.88174e-010 2.27804e-009 -7.33774e-010 10.2786 0.731801 0.0259123 -8.88186e-010 2.27804e-009 -7.33767e-010 2.22167 -0.733487 -0.20892 2.71566e-014 8.17024e-014 8.93964e-014 -66.4054 15.4077 -2.28211 9.95845 -4.44729 -17.3587 0.00634848 -2.55259 0.358929 -1.3935e-009 -3.52017e-010 1.0887e-009 -2.41059e-009 -6.09976e-010 1.88088e-009 -1.39351e-009 -3.52015e-010 1.08872e-009 -7.73091 5.47488 -0.417314 -1.3935e-009 -3.52019e-010 1.08871e-009 -2.90554 0.965183 -0.102902 -1.3935e-009 -3.5202e-010 1.08871e-009 -10.2786 0.731801 -0.0259123 -1.39349e-009 -3.52019e-010 1.0887e-009 -2.22167 -0.733487 0.20892 -2.03217e-016 0 -3.88251e-019 4.13577 -13.0822 2.45992 -0.0800085 15.266 0.268932 -1.54391 -4.55504 -6.48823 2.03217e-016 0 3.88251e-019 5.3766 -14.814 2.329 -0.00885962 22.1379 -0.372419 2.03913 -10.5941 6.9735 
